<svg id="Capa_1" data-name="Capa 1" xmlns="http://www.w3.org/2000/svg" xmlns:xlink="http://www.w3.org/1999/xlink" viewBox="0 0 494.86 494.86"><defs><style>.cls-1{fill:url(#Degradado_sin_nombre);}.cls-2{fill:#02123c;}.cls-3{fill:url(#Degradado_sin_nombre_5);}</style><linearGradient id="Degradado_sin_nombre" x1="-17.95" y1="662.38" x2="-17.95" y2="600.52" gradientTransform="translate(391 -4803) scale(8)" gradientUnits="userSpaceOnUse"><stop offset="0" stop-color="#9f2fff"/><stop offset="1" stop-color="#0bb1d3"/></linearGradient><linearGradient id="Degradado_sin_nombre_5" x1="248.57" y1="5.98" x2="248.57" y2="495.6" gradientTransform="translate(496 494.86) rotate(180)" xlink:href="#Degradado_sin_nombre"/></defs><title>boton-solo</title><path class="cls-1" d="M462.93,216.64a30.23,30.23,0,0,0-4.39.45L419,121.57a31.3,31.3,0,0,0,3.42-2.81,31.93,31.93,0,1,0-45.15-45.15A32.5,32.5,0,0,0,374.43,77L278.91,37.46a30.23,30.23,0,0,0,.45-4.39,31.93,31.93,0,0,0-63.86,0,30.23,30.23,0,0,0,.45,4.39L120.43,77a31.3,31.3,0,0,0-2.81-3.42,31.93,31.93,0,0,0-45.15,45.15,31.51,31.51,0,0,0,3.42,2.81L36.32,217.09a30.37,30.37,0,0,0-4.39-.45,31.93,31.93,0,1,0,0,63.86,30.37,30.37,0,0,0,4.39-.45L75.9,375.61a27.35,27.35,0,0,0-3.43,2.77,31.94,31.94,0,1,0,48,41.73l95.51,39.57a31.87,31.87,0,1,0,63.42,4.39,30.37,30.37,0,0,0-.45-4.39l95.52-39.57a30.38,30.38,0,0,0,2.81,3.42,31.93,31.93,0,0,0,45.15-45.15,29.47,29.47,0,0,0-3.45-2.77l39.59-95.56a30.51,30.51,0,0,0,4.4.45,31.93,31.93,0,0,0,0-63.86ZM388.53,84.9a16,16,0,1,1,22.58,22.58,16.35,16.35,0,0,1-22.58,0,16,16,0,0,1,0-22.58ZM272.81,52.22l95.51,39.56a32.29,32.29,0,0,0-.43,4.41,31.61,31.61,0,0,0,4.51,16.13l-35,35a135,135,0,0,0-82-34V63.86A31.88,31.88,0,0,0,272.81,52.22ZM247.43,17.1a16,16,0,1,1-16,16A16,16,0,0,1,247.43,17.1ZM126.54,91.78l95.51-39.57a31.78,31.78,0,0,0,17.4,11.64v49.43a135,135,0,0,0-82,34l-35-35A31.61,31.61,0,0,0,127,96.19,32.13,32.13,0,0,0,126.54,91.78ZM83.76,84.9a16,16,0,1,1,22.58,22.58,16.35,16.35,0,0,1-22.58,0A16,16,0,0,1,83.76,84.9ZM31.93,264.53a16,16,0,1,1,16-16A16,16,0,0,1,31.93,264.53ZM90.64,127.68a32.29,32.29,0,0,0,4.41.43,31.61,31.61,0,0,0,16.13-4.51l35,35a135,135,0,0,0-34,82H62.71a31.83,31.83,0,0,0-11.64-17.4Zm15.69,284.56a16.33,16.33,0,0,1-22.58,0,16,16,0,0,1,0-22.57,16.33,16.33,0,0,1,22.58,0,15.95,15.95,0,0,1,0,22.57Zm4.78-38.63a33,33,0,0,0-20.36-3.88L51.08,274a31.83,31.83,0,0,0,11.64-17.4h49.43a134.88,134.88,0,0,0,34,82Zm110.94,71.32-95.51-39.57A32.13,32.13,0,0,0,127,401a31.61,31.61,0,0,0-4.51-16.13l35-35a135,135,0,0,0,82,34v49.43A31.83,31.83,0,0,0,222.05,444.93ZM247.43,480a16,16,0,1,1,16-16A16,16,0,0,1,247.43,480Zm120.89-74.69-95.51,39.57a31.83,31.83,0,0,0-17.4-11.64V383.85a134.88,134.88,0,0,0,82-34l35,35A31.62,31.62,0,0,0,367.89,401,32,32,0,0,0,368.32,405.35Zm42.78,6.89a16.33,16.33,0,0,1-22.58,0,16,16,0,1,1,22.58,0Zm-7-42.52a33,33,0,0,0-20.36,3.88L348.7,338.55a135,135,0,0,0,34-82h49.43A31.91,31.91,0,0,0,443.78,274Zm28-129.13H382.72a135,135,0,0,0-34-82l35-35a31.61,31.61,0,0,0,16.13,4.51,32.29,32.29,0,0,0,4.41-.43l39.57,95.51A31.78,31.78,0,0,0,432.15,240.59Zm30.78,23.94a16,16,0,1,1,16-16A16,16,0,0,1,462.93,264.53Z" transform="translate(0 -1.14)"/><path class="cls-2" d="M322.15,271.36l-1.88,4.91c-.56,1.43-1.11,2.85-1.73,4.23l-2.16,4.82,12.05,24.09-20.16,20.16-24.09-12.05-4.82,2.16c-1.38.62-2.77,1.17-4.18,1.71l-5,1.87-8.54,25.6H233.17l-8.54-25.61-5-1.87c-1.41-.54-2.81-1.09-4.18-1.71l-4.82-2.16-24.09,12.05L166.42,309.4l12.05-24.09-2.16-4.83c-.63-1.39-1.17-2.8-1.73-4.22l-1.89-4.91-25.55-8.53V234.31l25.57-8.53,1.88-4.91c.56-1.42,1.11-2.84,1.73-4.23l2.16-4.82-12-24.09,20.16-20.16,24.09,12.05,4.82-2.16c1.37-.62,2.77-1.17,4.18-1.71l5-1.87,8.54-25.59h28.51l8.54,25.6,5,1.87c1.41.54,2.81,1.1,4.18,1.71l4.82,2.16,24.09-12,20.16,20.16-12.05,24.09,2.16,4.83c.63,1.39,1.17,2.8,1.73,4.22l1.88,4.92,25.55,8.52v28.51" transform="translate(0 -1.14)"/><circle class="cls-3" cx="247.43" cy="247.43" r="46.97"/><circle class="cls-2" cx="247.43" cy="247.43" r="28.18"/></svg>