<svg id="Layer_1" data-name="Layer 1" xmlns="http://www.w3.org/2000/svg" xmlns:xlink="http://www.w3.org/1999/xlink" viewBox="0 0 174.22 59.65"><defs><style>.cls-1{fill:url(#Degradado_sin_nombre);}.cls-2{fill:url(#Degradado_sin_nombre_2);}.cls-3{fill:url(#Degradado_sin_nombre_3);}.cls-4{fill:url(#Degradado_sin_nombre_4);}.cls-5{fill:url(#Degradado_sin_nombre_5);}</style><linearGradient id="Degradado_sin_nombre" x1="30.96" y1="-29.13" x2="205.22" y2="-29.13" gradientTransform="matrix(1, 0, 0, -1, -26.24, 12.3)" gradientUnits="userSpaceOnUse"><stop offset="0" stop-color="#9f2fff"/><stop offset="0.9" stop-color="#0bb1d3"/></linearGradient><linearGradient id="Degradado_sin_nombre_2" x1="30.96" y1="-29.17" x2="205.22" y2="-29.17" xlink:href="#Degradado_sin_nombre"/><linearGradient id="Degradado_sin_nombre_3" x1="30.96" y1="-29.57" x2="205.22" y2="-29.57" xlink:href="#Degradado_sin_nombre"/><linearGradient id="Degradado_sin_nombre_4" x1="30.96" y1="-29.56" x2="205.22" y2="-29.56" xlink:href="#Degradado_sin_nombre"/><linearGradient id="Degradado_sin_nombre_5" x1="30.96" y1="-29.18" x2="205.22" y2="-29.18" xlink:href="#Degradado_sin_nombre"/></defs><title>foto-majus</title><path class="cls-1" d="M41.93,70.43H33.14V30.16H33l-7.3,32H20.46l-7.29-32H13V70.43H4.76v-58H16.24l6.88,31.15h.16l6.8-31.15H41.93Z" transform="translate(-4.76 -11.65)"/><path class="cls-2" d="M81.53,70.43h-9L70.68,57.3H61l-1.9,13.17H50.29l10-58H71.51ZM65.76,24.86,62.14,49.3h7.38L66,24.86Z" transform="translate(-4.76 -11.65)"/><path class="cls-3" d="M105.81,56.92q0,7-3.35,10.69T92.31,71.3a22.5,22.5,0,0,1-5.89-.75l.5-8a14.68,14.68,0,0,0,4.31.66,5.73,5.73,0,0,0,4.43-1.53c.91-1,1.37-2.67,1.37-4.93V12.43h8.78Z" transform="translate(-4.76 -11.65)"/><path class="cls-4" d="M143.6,57.42q0,6.72-3.61,10.28t-10.06,3.6q-6.3,0-9.91-3.56t-3.6-10.28v-45h8.45V57.2c0,3.87,1.67,5.81,5,5.8s5-1.94,5-5.8V12.43h8.78Z" transform="translate(-4.76 -11.65)"/><path class="cls-5" d="M174.59,15Q178,18.4,178,24.61V26.1l-8.46.83V24.77A5.46,5.46,0,0,0,168.37,21a4.91,4.91,0,0,0-6.62,0,5.46,5.46,0,0,0-1.16,3.77v.75a9.63,9.63,0,0,0,1.57,5.18,29.14,29.14,0,0,0,5.8,6.09,40.52,40.52,0,0,1,8.54,9.28A17.82,17.82,0,0,1,179,55.35V58.3q0,6.21-3.52,9.61T165.39,71.3q-6.54,0-10.07-3.4t-3.56-9.6V54.4l8.45-.82v4.14c0,3.65,1.67,5.48,5,5.47s5-1.83,5-5.47V55.81a9.6,9.6,0,0,0-1.66-5.34,31.88,31.88,0,0,0-6-6.17,38.82,38.82,0,0,1-8.37-9.16,17.94,17.94,0,0,1-2.4-9.24V24.66q0-6.22,3.4-9.62c2.26-2.26,5.5-3.39,9.69-3.39S172.32,12.73,174.59,15Z" transform="translate(-4.76 -11.65)"/></svg>